<?xml version="1.0" standalone="no"?>
<!DOCTYPE svg PUBLIC "-//W3C//DTD SVG 20010904//EN"
    "http://www.w3.org/TR/2001/REC-SVG-20010904/DTD/svg10.dtd">
<svg height="675.000000pt" preserveAspectRatio="xMidYMid meet"
     version="1.0" viewBox="0 0 1181.000000 675.000000" width="1181.000000pt"
     xmlns="http://www.w3.org/2000/svg">

    <g fill="#000000"
       stroke="none" transform="translate(0.000000,675.000000) scale(0.100000,-0.100000)">
        <path d="M5985 5707 c-284 -155 -286 -158 -242 -238 13 -24 39 -71 57 -104
152 -274 240 -437 240 -441 0 -3 17 -36 39 -72 21 -37 55 -98 76 -137 21 -38
60 -109 86 -158 27 -48 49 -90 49 -93 0 -3 8 -18 19 -32 10 -15 33 -55 51 -89
17 -35 35 -63 39 -63 7 0 4 1248 -4 1267 -9 26 -298 193 -332 193 -10 0 -45
-15 -78 -33z"/>
        <path d="M3600 5260 c-20 -20 -20 -33 -20 -790 0 -562 3 -776 12 -795 18 -40
64 -34 152 20 41 25 77 45 81 45 9 0 90 56 109 76 14 14 16 66 16 430 0 228 2
414 5 414 3 0 35 -19 72 -43 38 -24 141 -85 231 -136 211 -120 228 -121 348
-27 99 78 308 201 325 191 5 -4 9 -178 9 -420 0 -465 -6 -426 77 -471 86 -47
139 -78 165 -95 14 -11 42 -19 60 -19 28 0 37 5 46 25 9 19 12 233 12 795 0
757 0 770 -20 790 -11 11 -27 20 -35 20 -28 0 -197 -95 -295 -165 -57 -41
-496 -315 -504 -315 -9 0 -428 263 -501 315 -83 58 -288 175 -309 175 -9 0
-25 -9 -36 -20z"/>
        <path d="M6840 5248 c-20 -22 -20 -31 -20 -793 0 -849 -3 -815 60 -815 27 0
88 28 150 69 14 10 47 28 73 42 85 43 81 31 87 298 l5 236 325 0 325 0 3 -234
c3 -270 -5 -249 110 -314 41 -23 95 -54 121 -69 49 -29 99 -36 119 -16 9 9 12
200 12 799 0 703 -2 789 -16 803 -24 25 -49 19 -133 -29 -43 -25 -81 -45 -84
-45 -4 0 -34 -19 -67 -41 l-60 -42 0 -253 0 -254 -330 0 -330 0 0 250 c0 242
-1 250 -22 269 -33 31 -265 161 -288 161 -10 0 -28 -10 -40 -22z"/>
        <path d="M5720 3999 l0 -636 23 -20 c21 -19 105 -69 232 -139 33 -19 70 -34
81 -34 27 0 130 47 219 100 39 23 83 49 98 59 48 28 45 48 -36 192 -41 74
-105 190 -142 259 -37 69 -104 190 -150 270 -45 80 -126 226 -181 325 -54 99
-108 198 -121 220 l-23 40 0 -636z"/>
        <path d="M6743 2477 c-40 -23 -75 -48 -78 -55 -4 -11 24 -66 169 -332 20 -36
66 -121 103 -189 l68 -125 3 320 c1 175 0 324 -2 331 -7 17 -147 93 -171 92
-11 0 -53 -19 -92 -42z"/>
        <path d="M4467 2454 c-184 -44 -301 -161 -343 -340 -13 -56 -15 -111 -11 -289
3 -197 6 -227 26 -283 71 -195 240 -295 501 -295 183 0 309 43 411 140 69 65
109 149 117 238 7 88 -5 95 -163 95 -145 0 -163 -7 -187 -75 -21 -60 -62 -100
-120 -116 -85 -22 -175 7 -213 71 -18 32 -20 55 -23 236 -2 124 1 217 7 242
22 80 111 130 207 115 77 -12 118 -48 143 -125 20 -62 38 -68 186 -68 166 0
170 2 163 92 -14 174 -141 306 -344 358 -92 24 -268 26 -357 4z"/>
        <path d="M706 2444 c-14 -14 -16 -80 -16 -583 0 -517 2 -570 17 -582 12 -10
50 -14 139 -14 105 0 126 3 141 18 16 16 19 46 23 292 l5 274 78 -143 c54 -98
87 -147 103 -155 43 -19 138 -14 167 9 15 12 60 85 101 163 l76 142 0 -281 c0
-346 -14 -319 167 -319 112 0 126 2 139 19 12 17 14 112 14 581 0 532 -1 563
-18 578 -28 25 -241 25 -270 0 -11 -10 -82 -129 -158 -265 -117 -211 -139
-245 -149 -230 -7 9 -69 121 -139 247 -70 127 -137 238 -148 248 -28 24 -248
25 -272 1z"/>
        <path d="M2378 2450 c-19 -12 -32 -45 -253 -650 -92 -250 -167 -466 -167 -479
0 -14 10 -33 23 -44 21 -17 37 -19 145 -15 77 2 127 8 137 16 8 7 30 53 48
102 l33 90 207 0 206 0 37 -94 c32 -83 41 -96 68 -105 34 -12 208 -13 248 -2
56 15 54 21 -159 605 -110 302 -208 557 -217 567 -15 17 -34 19 -178 19 -89 0
-169 -5 -178 -10z m237 -524 c30 -87 55 -162 55 -167 0 -5 -54 -9 -120 -9 -66
0 -120 2 -120 3 0 5 93 269 109 311 7 16 13 27 16 25 2 -3 29 -76 60 -163z"/>
        <path d="M3054 2446 c-17 -13 -19 -27 -19 -131 0 -158 -3 -155 191 -155 l144
0 0 -428 c0 -511 -14 -465 142 -470 55 -2 115 -1 133 2 68 13 65 -8 65 467 l0
429 145 0 c143 0 146 1 171 25 25 25 26 29 22 134 -2 73 -8 113 -17 124 -12
15 -59 17 -485 17 -392 0 -475 -2 -492 -14z"/>
        <path d="M5328 2449 c-17 -9 -18 -48 -18 -583 0 -522 1 -575 17 -587 12 -10
51 -14 150 -14 122 0 136 2 149 19 11 16 14 64 14 228 l0 208 185 0 185 0 0
-209 c0 -232 1 -235 65 -247 18 -3 79 -4 135 -2 154 5 140 -57 140 597 0 420
-3 552 -13 571 -12 25 -15 25 -151 28 -119 2 -141 0 -157 -14 -17 -16 -19 -35
-19 -221 l0 -203 -185 0 -185 0 0 204 c0 173 -2 207 -16 220 -12 13 -40 16
-147 16 -73 0 -140 -5 -149 -11z"/>
        <path d="M7328 2449 c-17 -9 -18 -48 -18 -583 0 -522 1 -575 17 -587 12 -10
51 -14 150 -14 122 0 136 2 149 19 11 16 14 64 14 228 l0 208 185 0 185 0 0
-209 c0 -232 1 -235 65 -247 18 -3 79 -4 135 -2 154 5 140 -57 140 597 0 420
-3 552 -13 571 -12 25 -15 25 -151 28 -119 2 -141 0 -157 -14 -17 -16 -19 -35
-19 -221 l0 -203 -185 0 -185 0 0 204 c0 173 -2 207 -16 220 -12 13 -40 16
-147 16 -73 0 -140 -5 -149 -11z"/>
        <path d="M8552 2448 c-9 -9 -12 -152 -12 -584 0 -519 2 -573 17 -585 17 -15
222 -26 267 -15 59 15 56 -13 56 601 0 499 -2 565 -16 579 -13 13 -42 16 -158
16 -97 0 -146 -4 -154 -12z"/>
        <path d="M9098 2449 c-17 -9 -18 -48 -18 -583 0 -521 2 -575 17 -587 12 -10
51 -14 148 -14 97 0 136 4 148 14 15 12 17 39 17 203 l0 189 72 -3 71 -3 93
-179 c50 -98 101 -188 113 -200 19 -19 34 -21 149 -24 222 -5 224 4 73 274
l-110 197 42 29 c116 82 172 222 148 369 -27 166 -122 264 -296 309 -69 18
-110 20 -364 20 -176 0 -293 -5 -303 -11z m556 -269 c56 -21 82 -110 51 -170
-25 -49 -60 -60 -185 -60 l-110 0 0 120 0 120 109 0 c60 0 121 -4 135 -10z"/>
        <path d="M10232 2448 c-9 -9 -12 -152 -12 -584 0 -519 2 -573 17 -585 23 -20
816 -26 853 -6 24 12 25 16 28 127 2 99 0 116 -15 127 -12 10 -86 13 -290 13
l-273 0 0 95 0 95 243 0 c305 0 287 -8 287 135 0 81 -3 107 -16 119 -13 14
-51 16 -265 16 l-249 0 0 90 0 89 271 3 c323 4 299 -8 299 143 0 86 -3 104
-18 118 -17 15 -61 17 -433 17 -310 0 -418 -3 -427 -12z"/>
        <path d="M6660 1614 c0 -366 -11 -326 102 -388 78 -43 81 -43 181 15 42 25 67
46 67 57 0 10 -55 116 -122 237 -66 121 -141 256 -165 300 -24 44 -48 84 -53
89 -7 7 -10 -104 -10 -310z"/>
    </g>
</svg>
